<svg xmlns="http://www.w3.org/2000/svg" height="350" width="700" viewBox="0 0 700 350"><path fill="#fff" d="M0 0h700v350H0z"/><g fill="none" transform="translate(0 -702.36)"><g stroke="#000" stroke-width="2"><path d="M635 902.36l-170-50M635 852.36l-170-50M465 902.36l170-50M465 952.36l170-50M635 902.36l-170-100M635 852.36l-170-100M465 952.36l170-100M465 1002.4l170-100M465 1002.4l170-150M635 902.36l-170-150M465 902.36h170M465 852.36h170"/></g><circle cx="-650" transform="scale(-1 1)" stroke="#0f9640" cy="902.36" r="16.2" stroke-width="4"/><circle stroke-width="4" transform="scale(-1 1)" stroke="#0f9640" cy="852.36" cx="-650" r="16.2"/><g stroke="#000" stroke-width="2"><path d="M65 952.36l170-50M65 902.36l170-50M65 852.36l170-50M65 802.36l170-50M235 852.36l-170-50M235 902.36l-170-50M235 952.36l-170-50M235 1002.4L65 952.36M65 952.36l170-100M65 902.36l170-100M65 852.36l170-100M235 902.36l-170-100M235 952.36l-170-100M235 1002.4L65 902.36M235 1002.4L65 852.36M235 952.36l-170-150M65 902.36l170-150M65 952.36l170-150M65 952.36l170-200M235 1002.4L65 802.36M235 952.36H65M235 902.36H65M235 852.36H65M235 802.36H65"/></g><g stroke="#164bc5" stroke-width="4"><circle cx="50" cy="902.36" r="16.2"/><circle cy="952.36" cx="50" r="16.2"/><circle cy="852.36" cx="50" r="16.2"/><circle cx="50" cy="802.36" r="16.2"/></g><g stroke="#000"><g stroke-width="2"><path d="M435 1002.4l-170-50M435 952.36l-170-50M435 902.36l-170-50M435 852.36l-170-50M435 802.36l-170-50M265 802.36l170-50M265 852.36l170-50M265 902.36l170-50M265 952.36l170-50M265 1002.4l170-50M435 1002.4l-170-100M435 952.36l-170-100M435 902.36l-170-100M435 852.36l-170-100M265 852.36l170-100M265 902.36l170-100M265 952.36l170-100M265 1002.4l170-100M265 1002.4l170-150M265 952.36l170-150M265 902.36l170-150M435 902.36l-170-150M435 952.36l-170-150M435 1002.4l-170-150M435 1002.4l-170-200M435 952.36l-170-200M265 952.36l170-200M265 1002.4l170-200M435 1002.4l-170-250M265 1002.4l170-250M265 1002.4h170M265 952.36h170M265 902.36h170M265 852.36h170M265 802.36h170M265 752.36h170"/></g><g stroke-width="4"><circle cx="-450" transform="scale(-1 1)" cy="1002.4" r="16.2"/><circle transform="scale(-1 1)" cy="902.36" cx="-450" r="16.2"/><circle cx="-450" transform="scale(-1 1)" cy="952.36" r="16.2"/><circle cx="-450" transform="scale(-1 1)" cy="852.36" r="16.2"/><circle transform="scale(-1 1)" cy="802.36" cx="-450" r="16.2"/><circle cx="-450" transform="scale(-1 1)" cy="752.36" r="16.2"/><circle cx="250" cy="1002.4" r="16.2"/><circle cy="902.36" cx="250" r="16.2"/><circle cx="250" cy="952.36" r="16.2"/><circle cx="250" cy="852.36" r="16.2"/><circle cy="802.36" cx="250" r="16.2"/><circle cx="250" cy="752.36" r="16.2"/></g></g></g></svg>